<svg width="64" height="64" viewBox="0 0 64 64" fill="none" xmlns="http://www.w3.org/2000/svg">
<path opacity="0.4" d="M48.9333 52.48C47.4666 56.24 43.8933 58.6667 39.8666 58.6667H24.1333C20.0799 58.6667 16.5333 56.24 15.0666 52.48C13.5999 48.6933 14.6133 44.5067 17.5999 41.7867L28.3999 32H35.6266L46.3999 41.7867C49.3866 44.5067 50.3733 48.6933 48.9333 52.48Z" fill="#5A50E0"/>
<path d="M36.8533 48.3732H27.1466C26.1333 48.3732 25.3333 47.5466 25.3333 46.5599C25.3333 45.5466 26.1599 44.7466 27.1466 44.7466H36.8533C37.8666 44.7466 38.6666 45.5732 38.6666 46.5599C38.6666 47.5466 37.8399 48.3732 36.8533 48.3732Z" fill="#5A50E0"/>
<path d="M48.9333 11.5204C47.4666 7.76041 43.8933 5.33374 39.8666 5.33374H24.1333C20.1066 5.33374 16.5333 7.76041 15.0666 11.5204C13.6266 15.3071 14.6133 19.4937 17.6266 22.2137L28.4 32.0004H35.6266L46.4 22.2137C49.3866 19.4937 50.3733 15.3071 48.9333 11.5204ZM36.8533 19.2804H27.1466C26.1333 19.2804 25.3333 18.4537 25.3333 17.4671C25.3333 16.4804 26.16 15.6537 27.1466 15.6537H36.8533C37.8666 15.6537 38.6666 16.4804 38.6666 17.4671C38.6666 18.4537 37.84 19.2804 36.8533 19.2804Z" fill="#5A50E0"/>
</svg>
